<?xml version="1.0" encoding="UTF-8"?>
<!DOCTYPE svg PUBLIC "-//W3C//DTD SVG 1.1//EN" "http://www.w3.org/Graphics/SVG/1.1/DTD/svg11.dtd">
<!-- Creator: CorelDRAW X8 -->
<svg xmlns="http://www.w3.org/2000/svg" xml:space="preserve" width="288.219mm" height="182.386mm" version="1.1" style="shape-rendering:geometricPrecision; text-rendering:geometricPrecision; image-rendering:optimizeQuality; fill-rule:evenodd; clip-rule:evenodd"
viewBox="0 0 28822 18239"
 xmlns:xlink="http://www.w3.org/1999/xlink">
 <defs>
  <style type="text/css">
   <![CDATA[
    .str0 {stroke:#F39E33;stroke-width:423.33}
    .str1 {stroke:#F39E33;stroke-width:352.78}
    .fil2 {fill:none;fill-rule:nonzero}
    .fil1 {fill:#F39E33;fill-rule:nonzero}
    .fil0 {fill:#2676B2;fill-rule:nonzero}
   ]]>
  </style>
 </defs>
 <g id="Camada_x0020_1">
  <metadata id="CorelCorpID_0Corel-Layer"/>
  <path class="fil0" d="M8289 8414c-26,-104 -68,-188 -128,-253 -60,-65 -141,-111 -242,-138 -101,-27 -229,-40 -383,-40l-2122 0 0 1720 499 0 0 -1222 1623 0c110,0 187,23 231,68 44,45 66,130 66,255l0 887c0,124 -22,208 -64,252 -43,44 -121,66 -233,66l-1578 0 0 1 -544 0 0 494 2122 0c154,0 282,-13 383,-40 101,-27 182,-72 242,-136 60,-63 102,-148 128,-253 26,-105 39,-234 39,-388l0 -887c0,-154 -13,-283 -39,-386z"/>
  <path class="fil0" d="M10981 8804c0,-125 -22,-210 -66,-255 -44,-45 -121,-68 -231,-68l-1327 0c-110,0 -187,23 -231,68 -44,45 -66,130 -66,255l0 887c0,63 5,115 15,155 10,41 26,73 49,97 24,25 54,42 92,52 38,10 85,14 141,14l1327 0c112,0 190,-22 232,-66 43,-44 65,-128 65,-252l0 -887zm-1624 1700c-154,0 -281,-13 -381,-40 -100,-27 -181,-72 -242,-136 -61,-63 -104,-148 -128,-253 -24,-105 -37,-234 -37,-388l0 -887c0,-154 13,-283 37,-388 24,-105 67,-190 128,-253 61,-64 142,-109 242,-136 100,-27 227,-40 381,-40l1330 0c149,0 275,13 376,40 101,27 183,72 244,136 61,63 104,148 130,253 25,105 38,234 38,388l0 887c0,154 -13,283 -38,388 -26,105 -69,190 -130,253 -61,64 -143,109 -244,136 -101,27 -227,40 -376,40l-1330 0z"/>
  <polygon class="fil0" points="14231,10504 14231,8855 13432,10504 12974,10504 12179,8855 12179,10504 11724,10504 11724,7983 12267,7983 13208,9998 14154,7983 14685,7983 14685,10504 "/>
  <polygon class="fil0" points="17437,10504 17437,8855 16638,10504 16180,10504 15385,8855 15385,10504 14931,10504 14931,7983 15473,7983 16415,9998 17360,7983 17891,7983 17891,10504 "/>
  <path class="fil0" d="M18895 10504c-139,0 -257,-15 -353,-44 -97,-29 -175,-76 -235,-141 -60,-65 -103,-147 -130,-247 -27,-100 -40,-223 -40,-367l0 -1722 491 0 0 1722c0,108 20,185 60,233 41,48 110,71 207,71l1232 0c97,0 166,-23 207,-71 40,-48 60,-125 60,-233l0 -1722 495 0 0 1722c0,144 -14,267 -40,367 -27,100 -71,182 -131,247 -59,65 -138,112 -236,141 -98,29 -216,44 -355,44l-1232 0z"/>
  <path class="fil0" d="M23736 9775c0,134 -15,248 -44,341 -29,93 -76,168 -141,225 -65,58 -150,99 -255,125 -105,25 -232,38 -381,38l-1781 0c5,-83 11,-165 17,-247 6,-82 11,-164 16,-248l1715 0c66,0 122,-4 167,-12 45,-9 81,-24 106,-46 26,-22 44,-51 55,-86 11,-36 17,-80 17,-134 0,-105 -24,-178 -70,-218 -46,-40 -134,-61 -264,-61l-1022 0c-152,0 -278,-13 -379,-40 -102,-27 -184,-68 -246,-124 -62,-57 -107,-127 -134,-213 -27,-85 -40,-186 -40,-301l0 -84c0,-124 13,-232 40,-322 27,-91 72,-164 136,-220 63,-56 147,-98 251,-125 104,-27 233,-40 387,-40l1766 0c-10,86 -20,169 -30,251 -9,82 -20,166 -33,251l-1703 0c-123,0 -205,21 -248,62 -43,42 -64,113 -64,213 0,100 21,172 64,214 43,43 125,64 248,64l1007 0c157,0 288,13 396,39 107,25 194,65 260,119 66,54 114,121 143,203 29,82 44,178 44,288l0 88z"/>
  <polygon class="fil1" points="19060,9435 19956,9435 19956,8621 19060,8621 "/>
  <line class="fil2 str0" x1="20645" y1="6782" x2="20645" y2= "7557" />
  <line class="fil2 str1" x1="17828" y1="7662" x2="19590" y2= "7001" />
  <line class="fil2 str1" x1="21207" y1="7662" x2="19445" y2= "7001" />
  <path class="fil0" d="M5873 11465c0,32 -6,61 -18,86 -11,25 -28,46 -49,64 -21,17 -46,30 -74,39 -28,9 -59,13 -92,13 -23,0 -44,-2 -63,-6 -20,-3 -38,-8 -53,-14 -15,-5 -28,-11 -38,-17 -11,-6 -18,-11 -22,-16 -4,-4 -7,-9 -9,-16 -2,-6 -3,-15 -3,-26 0,-8 0,-14 1,-19 1,-5 2,-10 3,-13 2,-3 3,-5 5,-6 3,-2 5,-2 8,-2 5,0 12,3 21,9 9,6 20,12 34,19 15,7 32,14 51,20 20,6 43,9 70,9 19,0 37,-2 54,-7 16,-6 30,-13 42,-23 12,-10 21,-22 27,-36 7,-14 10,-30 10,-48 0,-19 -5,-36 -13,-49 -9,-14 -21,-26 -35,-37 -15,-10 -31,-20 -50,-28 -18,-9 -37,-18 -57,-27 -19,-9 -38,-19 -56,-30 -19,-11 -35,-23 -49,-38 -15,-15 -27,-32 -36,-52 -9,-20 -13,-44 -13,-72 0,-29 5,-54 16,-76 10,-23 24,-42 43,-57 18,-15 40,-27 66,-35 26,-7 53,-11 83,-11 15,0 30,1 46,4 15,2 29,6 43,10 13,5 26,9 36,15 11,5 18,10 21,13 3,4 6,6 7,8 1,2 2,4 2,7 1,3 2,7 2,11 0,5 0,10 0,17 0,6 0,12 0,17 -1,5 -2,9 -3,12 -1,4 -2,6 -4,8 -2,1 -4,2 -7,2 -4,0 -10,-3 -18,-8 -8,-4 -19,-10 -30,-16 -13,-6 -27,-12 -43,-17 -16,-5 -35,-8 -55,-8 -19,0 -36,3 -50,8 -14,5 -26,12 -35,20 -9,9 -16,19 -21,30 -4,12 -7,24 -7,37 0,20 5,36 14,50 8,13 20,26 35,36 15,11 31,20 50,29 19,9 38,18 57,27 19,9 38,19 57,30 19,10 36,23 50,38 15,14 27,32 36,52 9,19 13,43 13,70z"/>
  <path class="fil0" d="M6311 11643c0,3 -1,6 -2,8 -2,2 -4,4 -8,5 -3,1 -8,2 -14,3 -5,1 -13,1 -22,1 -8,0 -15,0 -21,-1 -6,-1 -11,-2 -15,-3 -3,-1 -6,-3 -7,-5 -1,-2 -2,-5 -2,-8l0 -657c0,-2 1,-5 2,-7 2,-2 5,-4 8,-5 4,-1 9,-2 15,-3 5,-1 12,-2 20,-2 9,0 17,1 22,2 6,1 11,2 14,3 4,1 6,3 8,5 1,2 2,5 2,7l0 657z"/>
  <path class="fil0" d="M7077 11465c0,32 -6,61 -17,86 -12,25 -29,46 -50,64 -21,17 -45,30 -74,39 -28,9 -59,13 -91,13 -23,0 -45,-2 -64,-6 -20,-3 -37,-8 -53,-14 -15,-5 -28,-11 -38,-17 -11,-6 -18,-11 -22,-16 -4,-4 -7,-9 -9,-16 -2,-6 -3,-15 -3,-26 0,-8 0,-14 1,-19 1,-5 2,-10 3,-13 2,-3 4,-5 6,-6 2,-2 4,-2 7,-2 5,0 12,3 21,9 9,6 21,12 35,19 14,7 31,14 51,20 20,6 43,9 69,9 19,0 38,-2 54,-7 16,-6 30,-13 42,-23 12,-10 21,-22 28,-36 6,-14 9,-30 9,-48 0,-19 -4,-36 -13,-49 -9,-14 -21,-26 -35,-37 -15,-10 -31,-20 -50,-28 -18,-9 -37,-18 -56,-27 -20,-9 -39,-19 -57,-30 -18,-11 -35,-23 -49,-38 -15,-15 -26,-32 -35,-52 -9,-20 -14,-44 -14,-72 0,-29 5,-54 16,-76 10,-23 25,-42 43,-57 19,-15 41,-27 66,-35 26,-7 53,-11 83,-11 15,0 30,1 46,4 15,2 30,6 43,10 14,5 26,9 36,15 11,5 18,10 21,13 4,4 6,6 7,8 1,2 2,4 3,7 0,3 1,7 1,11 1,5 1,10 1,17 0,6 -1,12 -1,17 -1,5 -1,9 -2,12 -2,4 -3,6 -5,8 -2,1 -4,2 -7,2 -3,0 -10,-3 -18,-8 -8,-4 -18,-10 -30,-16 -12,-6 -26,-12 -43,-17 -16,-5 -35,-8 -55,-8 -19,0 -36,3 -50,8 -14,5 -26,12 -35,20 -9,9 -16,19 -20,30 -5,12 -7,24 -7,37 0,20 4,36 13,50 9,13 20,26 35,36 15,11 31,20 50,29 19,9 38,18 57,27 20,9 39,19 57,30 19,10 36,23 50,38 15,14 27,32 36,52 9,19 13,43 13,70z"/>
  <path class="fil0" d="M7846 11012c0,6 -1,12 -1,17 -1,5 -2,9 -4,12 -1,3 -3,5 -6,7 -2,1 -4,2 -7,2l-193 0 0 593c0,3 0,6 -2,8 -1,2 -4,4 -7,5 -4,1 -8,2 -14,3 -6,1 -13,1 -22,1 -9,0 -16,0 -22,-1 -6,-1 -11,-2 -14,-3 -4,-1 -6,-3 -8,-5 -1,-2 -2,-5 -2,-8l0 -593 -192 0c-3,0 -6,-1 -8,-2 -2,-2 -4,-4 -6,-7 -1,-3 -2,-7 -3,-12 -1,-5 -1,-11 -1,-17 0,-7 0,-13 1,-18 1,-5 2,-9 3,-12 2,-4 4,-6 6,-7 2,-2 5,-2 8,-2l476 0c3,0 5,0 7,2 3,1 5,3 6,7 2,3 3,7 4,12 0,5 1,11 1,18z"/>
  <path class="fil0" d="M8542 11620c0,6 0,12 -1,16 0,5 -2,9 -3,12 -2,3 -4,6 -6,7 -3,2 -5,2 -8,2l-329 0c-8,0 -15,-2 -23,-8 -7,-5 -11,-15 -11,-29l0 -610c0,-14 4,-24 11,-29 8,-6 15,-8 23,-8l325 0c3,0 6,0 8,2 2,1 4,3 5,7 2,3 3,7 4,12 1,4 1,10 1,17 0,7 0,12 -1,17 -1,5 -2,9 -4,12 -1,3 -3,5 -5,6 -2,2 -5,2 -8,2l-268 0 0 215 230 0c3,0 5,1 8,2 2,2 4,4 6,7 1,3 2,7 3,12 1,5 1,10 1,17 0,7 0,12 -1,17 -1,4 -2,8 -3,11 -2,3 -4,5 -6,6 -3,1 -5,2 -8,2l-230 0 0 245 272 0c3,0 5,0 8,2 2,1 4,3 6,6 1,3 3,7 3,12 1,5 1,11 1,18z"/>
  <path class="fil0" d="M9652 11643c0,3 -1,6 -3,8 -1,2 -4,4 -7,5 -4,1 -9,2 -14,3 -6,1 -13,1 -22,1 -9,0 -16,0 -22,-1 -6,-1 -10,-2 -14,-3 -3,-1 -6,-3 -7,-5 -2,-2 -2,-5 -2,-8l0 -596 -1 0 -242 599c-1,3 -2,5 -4,6 -2,2 -5,4 -9,5 -3,1 -8,2 -13,3 -5,0 -11,0 -18,0 -8,0 -14,0 -19,-1 -6,0 -10,-1 -13,-3 -4,-1 -7,-2 -9,-4 -2,-2 -3,-4 -4,-6l-230 -599 -1 0 0 596c0,3 -1,6 -2,8 -1,2 -4,4 -8,5 -3,1 -8,2 -14,3 -6,1 -13,1 -22,1 -9,0 -16,0 -22,-1 -6,-1 -10,-2 -14,-3 -3,-1 -6,-3 -7,-5 -1,-2 -2,-5 -2,-8l0 -629c0,-15 4,-26 12,-32 8,-6 17,-9 26,-9l56 0c12,0 22,1 30,3 9,2 16,5 23,10 6,4 12,10 16,17 4,7 8,16 11,25l196 496 3 0 203 -494c4,-11 9,-20 13,-27 5,-8 10,-14 16,-18 5,-4 11,-8 18,-9 7,-2 15,-3 24,-3l58 0c6,0 11,0 16,2 4,2 9,4 12,7 3,4 6,8 8,13 2,5 4,11 4,19l0 629z"/>
  <path class="fil0" d="M10268 11064l0 0 -118 341 238 0 -120 -341zm295 561c3,8 4,14 4,19 1,5 -1,8 -4,11 -2,2 -7,4 -14,4 -6,1 -15,1 -26,1 -11,0 -19,0 -26,0 -6,-1 -11,-2 -15,-3 -3,-1 -6,-3 -7,-5 -2,-2 -3,-5 -5,-8l-58 -167 -285 0 -56 165c-1,3 -3,6 -4,8 -2,2 -5,4 -8,6 -3,2 -8,3 -14,3 -6,1 -14,1 -24,1 -11,0 -19,0 -25,-1 -7,-1 -12,-2 -14,-5 -3,-2 -4,-6 -4,-11 0,-5 2,-11 5,-19l229 -636c2,-3 3,-7 6,-9 2,-2 5,-4 10,-6 4,-1 10,-2 17,-3 7,0 15,-1 26,-1 11,0 21,1 28,1 7,1 13,2 18,3 4,2 8,4 11,6 2,3 4,6 5,10l230 636z"/>
  <path class="fil0" d="M11262 11465c0,32 -6,61 -18,86 -12,25 -28,46 -49,64 -21,17 -46,30 -74,39 -29,9 -59,13 -92,13 -23,0 -44,-2 -64,-6 -20,-3 -37,-8 -52,-14 -16,-5 -29,-11 -39,-17 -10,-6 -18,-11 -22,-16 -4,-4 -7,-9 -9,-16 -2,-6 -3,-15 -3,-26 0,-8 1,-14 2,-19 0,-5 1,-10 3,-13 1,-3 3,-5 5,-6 2,-2 5,-2 7,-2 5,0 12,3 21,9 9,6 21,12 35,19 14,7 31,14 51,20 20,6 43,9 69,9 20,0 38,-2 54,-7 17,-6 31,-13 43,-23 11,-10 20,-22 27,-36 6,-14 9,-30 9,-48 0,-19 -4,-36 -13,-49 -9,-14 -20,-26 -35,-37 -14,-10 -31,-20 -49,-28 -19,-9 -38,-18 -57,-27 -20,-9 -38,-19 -57,-30 -18,-11 -34,-23 -49,-38 -14,-15 -26,-32 -35,-52 -9,-20 -14,-44 -14,-72 0,-29 6,-54 16,-76 10,-23 25,-42 43,-57 19,-15 41,-27 66,-35 26,-7 54,-11 83,-11 15,0 31,1 46,4 15,2 30,6 43,10 14,5 26,9 37,15 10,5 17,10 21,13 3,4 5,6 6,8 1,2 2,4 3,7 1,3 1,7 1,11 1,5 1,10 1,17 0,6 0,12 -1,17 0,5 -1,9 -2,12 -1,4 -3,6 -5,8 -2,1 -4,2 -6,2 -4,0 -10,-3 -19,-8 -8,-4 -18,-10 -30,-16 -12,-6 -26,-12 -43,-17 -16,-5 -34,-8 -55,-8 -19,0 -36,3 -50,8 -14,5 -25,12 -35,20 -9,9 -16,19 -20,30 -5,12 -7,24 -7,37 0,20 4,36 13,50 9,13 21,26 35,36 15,11 32,20 50,29 19,9 38,18 58,27 19,9 38,19 57,30 18,10 35,23 50,38 14,14 26,32 35,52 9,19 14,43 14,70z"/>
 </g>
</svg>
