<?xml version="1.0" encoding="UTF-8"?>
<svg enable-background="new 0 0 60 60" version="1.1" viewBox="0 0 60 60" xml:space="preserve" xmlns="http://www.w3.org/2000/svg">
<g fill="#0a71b2">
	<path d="m57 4h-7v-3c0-0.553-0.447-1-1-1h-7c-0.553 0-1 0.447-1 1v3h-22v-3c0-0.553-0.447-1-1-1h-7c-0.553 0-1 0.447-1 1v3h-7c-0.553 0-1 0.447-1 1v54c0 0.553 0.447 1 1 1h54c0.553 0 1-0.447 1-1v-54c0-0.553-0.447-1-1-1zm-14-2h5v6h-5v-6zm-31 0h5v6h-5v-6zm-8 4h6v3c0 0.553 0.447 1 1 1h7c0.553 0 1-0.447 1-1v-3h22v3c0 0.553 0.447 1 1 1h7c0.553 0 1-0.447 1-1v-3h6v9h-52v-9zm0 52v-41h52v41h-52z"/>
	<path d="m38 23h-27v29h38v-29h-11zm-7 2h7v7h-7v-7zm7 16h-7v-7h7v7zm-16-7h7v7h-7v-7zm0-9h7v7h-7v-7zm-9 0h7v7h-7v-7zm0 9h7v7h-7v-7zm7 16h-7v-7h7v7zm9 0h-7v-7h7v7zm9 0h-7v-7h7v7zm9 0h-7v-7h7v7zm0-9h-7v-7h7v7zm0-16v7h-7v-7h7z"/>
</g>
</svg>
