<?xml version="1.0" encoding="UTF-8"?>
<svg width="512px" height="512px" enable-background="new 0 0 496.941 496.941" version="1.1" viewBox="0 0 496.941 496.941" xml:space="preserve" xmlns="http://www.w3.org/2000/svg">
		<g fill="#0a71b2">
			<path d="m475.3 106.92l-12.047-3.765c-3.012-0.753-6.024-1.506-9.788-1.506-13.553 0-25.6 9.035-30.118 21.835l-6.776 20.329v-15.811c0-2.259-1.506-4.518-3.012-6.024l-123.48-119.72c-1.506-1.506-3.765-2.259-5.271-2.259h-241.69c-4.518 0-7.529 3.012-7.529 7.529v23.341h-27.859c-4.518 0-7.529 3.012-7.529 7.529v451.01c0 4.518 3.012 7.529 7.529 7.529h365.93c4.518 0 7.529-3.012 7.529-7.529v-23.341h27.859c4.518 0 7.529-3.012 7.529-7.529v-101.65l21.082-28.612 0.753-2.259 56.471-179.95c6.024-16.564-3.011-33.882-19.576-39.152zm-182.96-81.318l98.635 94.871h-98.635v-94.871zm73.789 456.28h-350.87v-435.95h20.329v412.61c0 4.518 3.012 7.529 7.529 7.529h323.01v15.812zm36.141-30.87h-351.62v-435.95h226.64v112.94c0 4.518 3.012 7.529 7.529 7.529h117.46v56.471l-35.388 111.44v2.259l1.506 95.624c0 3.012 2.259 6.024 5.271 6.776 3.012 0.753 6.776 0 8.282-3.012l20.329-27.106v73.036zm-19.577-73.036l-1.506-62.494 37.647 12.047-36.141 50.447zm98.636-236.42l-54.212 172.42-43.671-14.306 54.212-171.67c3.012-8.282 12.047-13.553 20.329-10.541l12.047 3.765c9.036 2.258 14.306 12.047 11.295 20.329z"/>
			<path d="m101.84 135.53h108.42c4.518 0 7.529-3.012 7.529-7.529v-76.8c0-4.518-3.012-7.529-7.529-7.529h-108.42c-4.518 0-7.529 3.012-7.529 7.529v76.8c0 3.765 3.765 7.529 7.529 7.529zm7.53-76.8h93.365v61.741h-93.365v-61.741z"/>
			<path d="m86.782 206.31h228.89c4.518 0 7.529-3.012 7.529-7.529 0-4.518-3.012-7.529-7.529-7.529h-228.89c-4.518 0-7.529 3.012-7.529 7.529-1e-3 4.517 3.011 7.529 7.529 7.529z"/>
			<path d="m86.782 261.27h228.89c4.518 0 7.529-3.012 7.529-7.529s-3.012-7.529-7.529-7.529h-228.89c-4.518 0-7.529 3.012-7.529 7.529s3.011 7.529 7.529 7.529z"/>
			<path d="m86.782 316.24h228.89c4.518 0 7.529-3.012 7.529-7.529s-3.012-7.529-7.529-7.529h-228.89c-4.518 0-7.529 3.012-7.529 7.529s3.011 7.529 7.529 7.529z"/>
			<path d="m322.45 363.67c0-4.518-3.012-7.529-7.529-7.529h-228.14c-4.518 0-7.529 3.012-7.529 7.529s3.012 7.529 7.529 7.529h228.89c3.764 0 6.776-3.765 6.776-7.529z"/>
			<path d="m347.3 411.11h-113.69c-4.518 0-7.529 3.012-7.529 7.529s3.012 7.529 7.529 7.529h112.94c4.518 0 7.529-3.012 7.529-7.529s-3.011-7.529-6.776-7.529z"/>
		</g>
</svg>
