<?xml version="1.0" encoding="UTF-8"?>
<svg enable-background="new 0 0 512 512" version="1.1" viewBox="0 0 512 512" xml:space="preserve" xmlns="http://www.w3.org/2000/svg">
		<path d="m312.46 332.73h-112.92c-8.511 0-15.434 6.923-15.434 15.434v34.634c0 8.511 6.923 15.435 15.434 15.435h112.92c8.511 0 15.435-6.923 15.435-15.435v-34.634c-2e-3 -8.51-6.925-15.434-15.436-15.434zm-4.41 45.659h-104.1v-25.814h104.1v25.814z" fill="#0a71b2"/>
		<path d="m506.98 246.96l0.159-0.08-74.405-147.1c-6.015-11.89-18.025-19.275-31.346-19.275h-14.141v-13.675c0-5.48-4.442-9.922-9.922-9.922h-242.64c-5.48 0-9.922 4.442-9.922 9.922v13.675h-14.141c-13.321 0-25.331 7.385-31.346 19.275l-74.406 147.1 0.159 0.08c-3.187 5.249-5.024 11.405-5.024 17.981v155.41c0 19.162 15.59 34.751 34.752 34.751h442.5c19.162 0 34.751-15.59 34.751-34.751v-155.41c0-6.576-1.837-12.732-5.024-17.981zm-119.73-144.41h14.141c4.959 0 9.43 2.751 11.671 7.179l60.93 120.46h-41.431v-37.066c0-5.48-4.442-9.922-9.922-9.922h-12.275v-53.227c0-5.48-4.442-9.922-9.922-9.922h-13.192v-17.504zm25.468 100.5v27.144h-52.359c-8.984 0-17.174 5.293-20.865 13.482l-14.296 31.71c-0.136 0.299-0.435 0.493-0.764 0.493h-136.85c-0.329 0-0.628-0.194-0.764-0.494l-14.295-31.708c-3.692-8.19-11.882-13.483-20.866-13.483h-52.359v-27.144h313.42zm-268.11-126.3h222.8v43.305h-222.8v-43.305zm245.91 63.149v43.305h-269.02v-43.305h269.02zm-291.57-30.168c2.24-4.429 6.712-7.179 11.671-7.179h14.141v17.503h-13.192c-5.48 0-9.922 4.442-9.922 9.922v53.227h-12.275c-5.48 0-9.922 4.442-9.922 9.922v37.066h-41.431l60.93-120.46zm378.3 323.32h-442.5c-7.004 0-12.703-5.699-12.703-12.701v-155.41c0-7.003 5.698-12.701 12.703-12.701h116.9c0.328 0 0.629 0.194 0.765 0.495l14.295 31.708c3.692 8.19 11.881 13.481 20.865 13.481h136.85c8.984 0 17.174-5.292 20.865-13.48l14.296-31.709v-1e-3c0.136-0.3 0.435-0.494 0.764-0.494h116.9c7.004 0 12.701 5.699 12.701 12.701v155.41h1e-3c1e-3 7.004-5.697 12.701-12.701 12.701z" fill="#0a71b2"/>
</svg>
