<?xml version="1.0"?>
<svg xmlns="http://www.w3.org/2000/svg" height="512px" viewBox="-14 -14 466.6669 466" width="512px"><path d="m162.988281 202.421875c21.683594-.050781 39.316407-17.488281 39.621094-39.171875.160156-10.34375-3.886719-20.3125-11.214844-27.617188-15.089843-15.089843-39.832031-14.894531-55.164062.433594-15.328125 15.328125-15.523438 40.074219-.433594 55.164063 7.210937 7.203125 16.996094 11.226562 27.191406 11.191406zm-10.882812-50.484375c3.203125-3.226562 7.558593-5.042969 12.101562-5.058594 4.238281-.023437 8.308594 1.644532 11.308594 4.628906 3.039063 3.046876 4.710937 7.191407 4.632813 11.496094-.050782 4.480469-1.875 8.765625-5.0625 11.914063-4.054688 4.359375-10.160157 6.160156-15.929688 4.6875-5.761719-1.472657-10.265625-5.976563-11.738281-11.738281-1.46875-5.765626.328125-11.875 4.6875-15.929688zm0 0" fill="#0a71b2"/><path d="m75.40625 91.554688-35.441406 104.320312c-.0625.179688-.125.375-.175782.554688-3.554687 12.609374-.027343 26.15625 9.230469 35.425781l193.6875 193.683593c7.582031 7.601563 17.890625 11.855469 28.625 11.808594h.464844c10.914063-.113281 21.347656-4.523437 29.035156-12.269531l124.414063-124.414063c16.15625-16.15625 16.363281-42.226562.464844-58.125l-193.6875-193.6875c-9.265626-9.261718-22.816407-12.792968-35.429688-9.230468-.183594.054687-.367188.105468-.550781.171875l-104.980469 35.660156-71.894531-71.890625c-4.378907-4.386719-11.492188-4.386719-15.878907-.003906-4.386718 4.386718-4.386718 11.496094 0 15.878906zm127.542969-30.390626c4.722656-1.242187 9.746093.113282 13.195312 3.566407l193.6875 193.679687c7.136719 7.417969 6.933594 19.210938-.464843 26.371094l-124.414063 124.417969c-7.164063 7.394531-18.957031 7.605469-26.371094.464843l-193.6875-193.683593c-3.445312-3.457031-4.804687-8.480469-3.5625-13.199219l35.90625-105.707031zm0 0" fill="#0a71b2"/><path d="m246.734375 365.207031c4.386719 4.386719 11.492187 4.386719 15.875 0l102.324219-102.316406c4.378906-4.386719 4.378906-11.496094-.003906-15.882813-4.382813-4.382812-11.492188-4.382812-15.875 0l-102.320313 102.324219c-4.382813 4.378907-4.382813 11.488281 0 15.875zm0 0" fill="#0a71b2"/><path d="m222.035156 335.859375c2.984375.003906 5.835938-1.179687 7.9375-3.289063l102.324219-102.320312c4.382813-4.382812 4.378906-11.492188 0-15.875-4.386719-4.382812-11.496094-4.382812-15.882813 0l-102.316406 102.320312c-3.210937 3.210938-4.171875 8.039063-2.429687 12.234376 1.734375 4.195312 5.824219 6.929687 10.367187 6.929687zm0 0" fill="#0a71b2"/></svg>
