
<svg width="476pt" height="476pt" viewBox="-38 0 476 476" >
<path d="m116.96 125.6c-3.8789-3.7617-10.043-3.7617-13.922 0l-38.148 36.973c-2.5977 2.4805-3.6641 6.1641-2.8008 9.6484 0.86719 3.4844 3.5352 6.2383 6.9922 7.2109 3.457 0.97656 7.168 0.023437 9.7266-2.4961l21.191-20.539v68.82c0 5.5234 4.4766 10 10 10 5.5234 0 10-4.4766 10-10v-68.82l21.191 20.539c3.9727 3.793 10.262 3.6719 14.086-0.27344 3.8203-3.9453 3.7461-10.234-0.16797-14.086z"/>
<path d="m103.95 323h103.38c5.5234 0 10-4.4766 10-10s-4.4766-10-10-10h-103.38c-5.5195 0-10 4.4766-10 10s4.4805 10 10 10z"/>
<path d="m93.949 356c0 5.5234 4.4805 10 10 10h233.38c5.5234 0 10-4.4766 10-10s-4.4766-10-10-10h-233.38c-5.5195 0-10 4.4766-10 10z"/>
<path d="m337.33 389h-233.38c-5.5195 0-10 4.4766-10 10s4.4805 10 10 10h233.38c5.5234 0 10-4.4766 10-10s-4.4766-10-10-10z"/>
<path d="m9.5977 269h31.406v156.88c-0.039062 27.598 22.27 50.02 49.867 50.117h259.54c27.57 0 49.594-22.547 49.594-50.117v-305.75c0.074219-2.5781-0.86719-5.0781-2.6211-6.9648l-106.69-110.07c-1.8359-1.9531-4.3906-3.0703-7.0742-3.0938h-192.75c-27.598 0.097656-49.906 22.52-49.867 50.117v38.883h-31.406c-5.5234 0-9.5937 4.5117-9.5937 10.035v160.4c-0.074219 2.5625 0.91406 5.0469 2.7305 6.8555 1.8164 1.8125 4.3008 2.793 6.8633 2.7109zm284.41-234.22 72.766 75.223h-63.148c-2.5977 0.011719-5.0898-1.0312-6.9023-2.8945-1.8125-1.8594-2.793-4.375-2.7148-6.9727zm-233 15.34c-0.050781-16.559 13.312-30.031 29.867-30.117h183.13v80.133c-0.070312 7.8984 3.0195 15.5 8.582 21.109 5.5625 5.6094 13.137 8.7617 21.035 8.7578h76.383v295.88c0 16.543-13.051 30.117-29.594 30.117h-259.54c-16.555-0.085938-29.918-13.559-29.867-30.117v-156.88h149.54c5.5234 0 10.465-4.043 10.465-9.5664v-160.4c0-5.5234-4.9414-10.035-10.465-10.035h-149.54zm-41 58.883h181v140h-181z"/>
</svg>
