<svg xmlns="http://www.w3.org/2000/svg" xmlns:xlink="http://www.w3.org/1999/xlink" version="1.1" x="0px" y="0px" viewBox="0 0 100 100" enable-background="new 0 0 100 100" xml:space="preserve"><path d="M39.8,32.5c-1.4,0-2.5-1.1-2.5-2.5s1.1-2.5,2.5-2.5h1.6h7.5h4.5h7.9h1.2c1.4,0,2.5,1.1,2.5,2.5s-1.1,2.5-2.5,2.5h-1.2h-2.4  H43.3h-1.9H39.8z M21.1,52.5h15.4v0h10.5v0h15.4c1.4,0,2.5-1.1,2.5-2.5c0-1.4-1.1-2.5-2.5-2.5H51.4h-4.4H36.7h-5.3H21.1  c-1.4,0-2.5,1.1-2.5,2.5C18.6,51.4,19.8,52.5,21.1,52.5z M18.6,40c0,1.4,1.1,2.5,2.5,2.5h10.3h6.3h8.1h5.5h11.1  c1.4,0,2.5-1.1,2.5-2.5c0-1.4-1.1-2.5-2.5-2.5H43.8v0h-3.9v0H21.1C19.8,37.5,18.6,38.6,18.6,40z M52.5,62.5c1-1.8,2.2-3.5,3.6-5  h-9.8v0h-9v0H21.1c-1.4,0-2.5,1.1-2.5,2.5v0c0,1.4,1.1,2.5,2.5,2.5h10.3H39h5.6h6.8H52.5z M21.1,72.5H37h9.7h3  c0.1-1.7,0.4-3.4,0.8-5h-8.5h-0.3H21.1c-1.4,0-2.5,1.1-2.5,2.5C18.6,71.4,19.8,72.5,21.1,72.5z M20.9,82.5h30.2  c-0.6-1.6-1.1-3.3-1.3-5H20.9c-1.4,0-2.5,1.1-2.5,2.5C18.4,81.4,19.5,82.5,20.9,82.5z M65.5,7.1H30.8c-0.6,0-1.2,0.1-1.8,0.3  c-0.6,0.2-1.1,0.6-1.5,1L9.3,25.9c-0.5,0.4-0.8,1-1.1,1.6C8,28,7.9,28.7,7.9,29.3v53c0,5.9,4.7,10.6,10.6,10.6h40.4  c-1.8-1.4-3.5-3.1-4.8-5H18.5c-3.1,0-5.6-2.5-5.6-5.6V30.8h8.9c5.8,0,10.6-4.8,10.6-10.6v-8.1h33.2c3.1,0,5.6,2.5,5.6,5.6v5.7v26.7  c0.8-0.1,1.6-0.1,2.4-0.1c0.9,0,1.7,0,2.6,0.1V25.1v-1.7v-5.7C76.1,11.9,71.4,7.1,65.5,7.1z M54.9,74c0-10.3,8.3-18.6,18.6-18.6  S92.1,63.7,92.1,74s-8.3,18.6-18.6,18.6S54.9,84.2,54.9,74z M63.7,71.3l3.5,3.5l3.8-3.8v14.6h5V70.9l3.8,3.8l3.5-3.5l-9.9-9.9  L63.7,71.3z"/>
</svg>
