<svg xmlns="http://www.w3.org/2000/svg" xmlns:xlink="http://www.w3.org/1999/xlink" version="1.1" x="0px" y="0px" viewBox="0 0 100 100" enable-background="new 0 0 100 100" xml:space="preserve"><path d="M62.5,52.5H47.1v0H36.6v0H21.1c-1.4,0-2.5-1.1-2.5-2.5c0-1.4,1.1-2.5,2.5-2.5h10.3h5.3h10.2h4.4h11.1c1.4,0,2.5,1.1,2.5,2.5  C65,51.4,63.9,52.5,62.5,52.5z M62.5,37.5H43.8v0h-3.9v0H21.1c-1.4,0-2.5,1.1-2.5,2.5c0,1.4,1.1,2.5,2.5,2.5h10.3h6.3h8.1h5.5h11.1  c1.4,0,2.5-1.1,2.5-2.5C65,38.6,63.9,37.5,62.5,37.5z M52.5,62.5c1-1.8,2.2-3.5,3.6-5h-9.8v0h-9v0H21.1c-1.4,0-2.5,1.1-2.5,2.5v0  c0,1.4,1.1,2.5,2.5,2.5h10.3H39h5.6h6.8H52.5z M21.1,72.5H37h9.7h3c0.1-1.7,0.4-3.4,0.8-5h-8.5h-0.3H21.1c-1.4,0-2.5,1.1-2.5,2.5  C18.6,71.4,19.8,72.5,21.1,72.5z M20.9,82.5h30.2c-0.6-1.6-1.1-3.3-1.3-5H20.9c-1.4,0-2.5,1.1-2.5,2.5  C18.4,81.4,19.5,82.5,20.9,82.5z M71.1,50.1c0.8-0.1,1.6-0.1,2.4-0.1c0.9,0,1.7,0,2.6,0.1V25.1v-1.7v-5.7c0-5.9-4.7-10.6-10.6-10.6  H30.8c-0.6,0-1.2,0.1-1.8,0.3c-0.6,0.2-1.1,0.6-1.5,1L9.3,25.9c-0.5,0.4-0.8,1-1.1,1.6C8,28,7.9,28.7,7.9,29.3v53  c0,5.9,4.7,10.6,10.6,10.6h40.4c-1.8-1.4-3.5-3.1-4.8-5H18.5c-3.1,0-5.6-2.5-5.6-5.6V30.8h8.9c5.8,0,10.6-4.8,10.6-10.6v-8.1h33.2  c3.1,0,5.6,2.5,5.6,5.6v5.7V50.1z M86.7,60.8c7.3,7.3,7.3,19,0,26.3c-7.3,7.3-19,7.3-26.3,0c-7.3-7.3-7.3-19,0-26.3  C67.7,53.5,79.4,53.5,86.7,60.8z M81.7,78.6L77.1,74l4.7-4.7c1-1,1-2.6,0-3.5c-1-1-2.6-1-3.5,0l-4.7,4.7l-4.7-4.7c-1-1-2.6-1-3.5,0  c-1,1-1,2.6,0,3.5L70,74l-4.7,4.7c-1,1-1,2.6,0,3.5s2.6,1,3.5,0l4.7-4.7l4.7,4.7c1,1,2.6,1,3.5,0C82.7,81.2,82.7,79.6,81.7,78.6z   M62.5,27.5h-1.2h-7.9h-4.5h-7.5h-1.6c-1.4,0-2.5,1.1-2.5,2.5s1.1,2.5,2.5,2.5h1.6h1.9h15.7h2.4h1.2c1.4,0,2.5-1.1,2.5-2.5  S63.9,27.5,62.5,27.5z"/></svg>